<svg xmlns="http://www.w3.org/2000/svg"><style>:root svg:not(:target){display:none}</style><svg fill="none" aria-label="Arrow down." id="arrow-down-red" viewBox="0 0 18 10"><path d="m1 1 8 8 8-8" stroke="red"></path></svg><svg fill="none" aria-label="Arrow down." id="arrow-down" viewBox="0 0 18 10"><path d="m1 1 8 8 8-8" stroke="#40393B"></path></svg><svg fill="none" aria-label="Cart icon." id="cart-icon" viewBox="0 0 24 24"><path d="M8.1 10.778V4.667c0-.973.411-1.905 1.142-2.593A4.03 4.03 0 0 1 12 1a4.03 4.03 0 0 1 2.758 1.074A3.559 3.559 0 0 1 15.9 4.667v6.11M19.696 23H4.304c-.18 0-.358-.034-.523-.102a1.302 1.302 0 0 1-.435-.29 1.21 1.21 0 0 1-.274-.43 1.154 1.154 0 0 1-.068-.498L4.11 8.236c.026-.307.175-.594.416-.802.24-.209.557-.324.884-.323h13.182c.327 0 .643.114.884.323.241.208.39.495.416.802l1.105 13.444c.014.169-.009.338-.068.498a1.21 1.21 0 0 1-.274.43c-.122.124-.27.223-.435.29a1.371 1.371 0 0 1-.523.102Z" stroke="currentColor" stroke-linecap="round" stroke-linejoin="round"></path></svg><svg fill="none" aria-label="Facebook logo." id="facebook" viewBox="0 0 20 20"><path d="M20 10.061C20 4.505 15.523 0 10 0S0 4.505 0 10.061C0 15.083 3.657 19.245 8.438 20v-7.03h-2.54V10.06h2.54V7.845c0-2.522 1.492-3.915 3.777-3.915 1.093 0 2.238.197 2.238.197v2.476h-1.26c-1.243 0-1.63.775-1.63 1.572v1.886h2.773l-.443 2.908h-2.33V20c4.78-.755 8.437-4.917 8.437-9.939Z" fill="currentColor"></path></svg><svg fill="none" aria-label="Instagram logo." id="instagram" viewBox="0 0 20 20"><path d="M10.006 1.801c2.673 0 2.99.012 4.041.059.977.043 1.505.207 1.857.344.465.18.801.398 1.149.746.352.351.567.684.746 1.148.137.352.301.883.344 1.856.047 1.055.06 1.372.06 4.04 0 2.672-.013 2.989-.06 4.04-.043.977-.207 1.504-.344 1.856-.18.465-.398.8-.746 1.148a3.078 3.078 0 0 1-1.15.747c-.35.137-.883.3-1.856.343-1.055.047-1.372.06-4.041.06-2.674 0-2.99-.013-4.042-.06-.977-.042-1.504-.206-1.856-.343a3.094 3.094 0 0 1-1.15-.747 3.076 3.076 0 0 1-.746-1.148c-.137-.352-.3-.883-.344-1.856-.047-1.055-.058-1.371-.058-4.04 0-2.672.011-2.989.058-4.04.043-.976.207-1.504.344-1.856.18-.464.399-.8.747-1.148a3.078 3.078 0 0 1 1.149-.746c.352-.137.883-.301 1.856-.344 1.052-.047 1.368-.059 4.042-.059Zm0-1.801C7.289 0 6.949.012 5.882.059 4.82.105 4.088.277 3.455.524c-.66.257-1.22.597-1.774 1.156A4.9 4.9 0 0 0 .524 3.45C.278 4.087.106 4.813.059 5.876.012 6.946 0 7.286 0 10.002c0 2.715.012 3.055.059 4.122.047 1.063.219 1.793.465 2.426.258.66.598 1.22 1.157 1.774a4.892 4.892 0 0 0 1.77 1.152c.637.247 1.364.419 2.427.465 1.067.047 1.408.059 4.124.059 2.716 0 3.056-.012 4.123-.059 1.064-.046 1.794-.218 2.428-.464a4.892 4.892 0 0 0 1.77-1.153 4.89 4.89 0 0 0 1.153-1.77c.247-.637.419-1.363.465-2.426.047-1.067.059-1.407.059-4.122 0-2.716-.012-3.055-.059-4.122-.046-1.063-.218-1.793-.465-2.426a4.685 4.685 0 0 0-1.145-1.778 4.892 4.892 0 0 0-1.77-1.153C15.923.281 15.196.11 14.133.063 13.063.012 12.723 0 10.006 0Z" fill="currentColor"></path><path d="M10.006 4.864a5.14 5.14 0 0 0-5.14 5.138 5.14 5.14 0 0 0 10.28 0 5.14 5.14 0 0 0-5.14-5.138Zm0 8.47a3.334 3.334 0 1 1 0-6.667 3.334 3.334 0 0 1 0 6.668ZM16.549 4.661a1.2 1.2 0 1 1-2.4-.001 1.2 1.2 0 0 1 2.4.001Z" fill="currentColor"></path></svg><svg fill="none" aria-label="FLORAL BOUTIQUE logotype." id="logotype" viewBox="0 0 177 17"><path d="M1.55 1.254 0 1.039V.143h9.645l.18 3.046H8.653L8.113 1.2l-4.634-.125V6.27l3.263-.054.307-1.487h.955v4.192h-.937l-.325-1.559-3.263-.071v5.105l2.813.18v.877H.108v-.878l1.442-.179V1.254ZM13.109 1.254l-1.46-.215V.143h5.174v.896l-1.785.215v11.142l4.65-.161 1.065-3.01 1.1.162-.632 4.066h-9.609v-.878l1.497-.179V1.254ZM28.825 13.65c-1.226 0-2.265-.28-3.119-.842-.84-.561-1.478-1.35-1.91-2.364-.433-1.027-.65-2.216-.65-3.565 0-1.374.259-2.58.776-3.619.528-1.039 1.25-1.839 2.163-2.4.913-.573 1.94-.86 3.083-.86 1.875 0 3.305.591 4.29 1.773.998 1.17 1.497 2.795 1.497 4.873 0 1.397-.27 2.627-.812 3.69-.528 1.051-1.262 1.87-2.199 2.454-.925.574-1.965.86-3.119.86ZM29.06.932c-1.166 0-2.086.507-2.759 1.522-.673 1.003-1.01 2.478-1.01 4.425 0 1.791.325 3.212.974 4.263.661 1.04 1.58 1.559 2.758 1.559 1.154 0 2.068-.52 2.74-1.559.686-1.039 1.028-2.532 1.028-4.478 0-1.803-.324-3.207-.973-4.21-.65-1.015-1.569-1.522-2.759-1.522ZM36.734 12.575l1.496-.179V1.254l-1.406-.233V.143h2.361c.337 0 .794-.024 1.37-.071C41.157.024 41.626 0 41.963 0c1.766 0 3.022.287 3.767.86.758.561 1.136 1.45 1.136 2.669 0 .848-.24 1.624-.72 2.329a3.472 3.472 0 0 1-1.948 1.433c.385.203.74.555 1.064 1.057.336.49.745 1.176 1.226 2.06.372.669.655 1.158.847 1.469.204.31.397.483.577.52l.703.178v.878h-2.488c-.192 0-.408-.203-.649-.609-.24-.418-.559-1.057-.955-1.917-.433-.943-.812-1.69-1.136-2.239-.313-.561-.625-.92-.938-1.075-1.286 0-2.049-.006-2.29-.018v4.801l1.786.18v.877h-5.21v-.878Zm5.57-5.93c.77 0 1.376-.25 1.821-.751.445-.502.667-1.248.667-2.24 0-.871-.228-1.534-.685-1.988-.445-.466-1.22-.699-2.326-.699-.384 0-.769.024-1.153.072-.24.024-.397.036-.47.036v5.553c.181.012.554.018 1.119.018h1.027ZM54.186.036h1.983l4.381 12.36 1.118.18v.877h-4.76v-.878l1.497-.179-.848-2.651h-5.264l-.847 2.651 1.55.18v.877h-4.272v-.878l1.118-.179L54.186.036Zm1.136 2.866-.45-1.576-.433 1.612-1.821 5.75h4.597l-1.893-5.786ZM64.163 1.254l-1.46-.215V.143h5.173v.896l-1.784.215v11.142l4.65-.161 1.064-3.01 1.1.162-.63 4.066h-9.61v-.878l1.497-.179V1.254ZM80.552 1.254l-1.479-.215V.143h2.434c.409 0 .925-.024 1.55-.071A17.18 17.18 0 0 1 84.337 0c1.659 0 2.843.257 3.552.77.721.514 1.082 1.266 1.082 2.257 0 .848-.247 1.577-.74 2.186-.492.609-1.165.991-2.019 1.146 1.154-.024 2.061.245 2.722.806.662.562.992 1.326.992 2.293 0 1.207-.433 2.192-1.298 2.956-.853.764-2.272 1.147-4.254 1.147-.433 0-.848-.018-1.245-.054a71.936 71.936 0 0 0-1.676-.054h-2.398v-.878l1.497-.179V1.254Zm1.91 4.765c.169.012.511.018 1.028.018h.992c.84 0 1.478-.233 1.91-.699.433-.466.65-1.128.65-1.988 0-.836-.217-1.445-.65-1.827-.432-.394-1.171-.591-2.217-.591-.432 0-.877.023-1.334.071l-.378.036v4.98Zm0 6.43c.277.097.902.144 1.875.144 1.214 0 2.092-.245 2.632-.734.553-.502.83-1.218.83-2.15 0-.92-.24-1.588-.721-2.006-.47-.418-1.232-.627-2.29-.627-1.226 0-2.001.012-2.325.036v5.338ZM97.22 13.65c-1.226 0-2.266-.28-3.12-.842-.84-.561-1.477-1.35-1.91-2.364-.433-1.027-.65-2.216-.65-3.565 0-1.374.26-2.58.776-3.619.529-1.039 1.25-1.839 2.163-2.4C95.393.287 96.42 0 97.562 0c1.875 0 3.305.591 4.291 1.773.997 1.17 1.496 2.795 1.496 4.873 0 1.397-.27 2.627-.811 3.69-.529 1.051-1.262 1.87-2.2 2.454-.925.574-1.965.86-3.118.86ZM97.453.932c-1.166 0-2.085.507-2.758 1.522-.673 1.003-1.01 2.478-1.01 4.425 0 1.791.325 3.212.974 4.263.66 1.04 1.58 1.559 2.758 1.559 1.154 0 2.067-.52 2.74-1.559.685-1.039 1.028-2.532 1.028-4.478 0-1.803-.325-3.207-.974-4.21C99.563 1.44 98.644.932 97.454.932ZM111.167 13.596c-1.766 0-3.07-.465-3.912-1.397-.829-.943-1.244-2.4-1.244-4.37V1.253l-1.28-.215V.143h4.814v.896l-1.533.233v6.753c0 1.624.289 2.795.866 3.511.589.717 1.43 1.075 2.524 1.075 1.093 0 1.911-.382 2.451-1.146.553-.765.83-1.875.83-3.332V1.272l-1.515-.233V.143h4.201v.896l-1.316.215v6.79c0 1.862-.445 3.253-1.334 4.173-.89.92-2.073 1.38-3.552 1.38ZM123.232 1.093l-3.101.107-.631 3.744h-1.189l.306-4.8h11.231l.217 4.8h-1.136l-.595-3.744-3.119-.107v11.303l2.56.18v.877h-6.887v-.878l2.344-.179V1.093ZM133.497 1.254l-1.677-.215V.143h5.3v.896l-1.676.215v11.142l1.676.197v.86h-5.282v-.878l1.659-.179V1.254ZM153.063 17c-.541 0-1.052-.09-1.533-.269a6.48 6.48 0 0 1-1.316-.663c-.384-.25-.847-.585-1.388-1.003a17.857 17.857 0 0 0-1.496-1.057 3.599 3.599 0 0 0-1.226-.501 6.168 6.168 0 0 1-1.298.143c-1.214 0-2.247-.28-3.101-.842-.853-.561-1.496-1.35-1.929-2.364-.432-1.027-.649-2.216-.649-3.565 0-1.374.259-2.58.775-3.619.529-1.039 1.25-1.839 2.164-2.4.913-.573 1.947-.86 3.101-.86 1.874 0 3.305.591 4.29 1.773.986 1.17 1.478 2.795 1.478 4.873 0 1.54-.324 2.872-.973 3.995-.637 1.122-1.502 1.94-2.596 2.454.541.048 1.064.179 1.568.394.505.215 1.1.52 1.785.913.757.407 1.37.705 1.839.896.469.191.949.287 1.442.287.205 0 .391-.012.559-.036l.216.77a1.968 1.968 0 0 1-.775.502c-.3.12-.613.179-.937.179Zm-8.059-4.3c1.166 0 2.086-.513 2.759-1.54.673-1.039 1.009-2.538 1.009-4.496 0-1.803-.324-3.207-.973-4.21-.649-1.015-1.563-1.522-2.741-1.522-1.165 0-2.091.501-2.776 1.504-.673 1.003-1.009 2.484-1.009 4.443 0 1.791.324 3.212.973 4.263.661 1.04 1.581 1.559 2.758 1.559ZM158.806 13.596c-1.767 0-3.071-.465-3.912-1.397-.83-.943-1.244-2.4-1.244-4.37V1.253l-1.28-.215V.143h4.813v.896l-1.532.233v6.753c0 1.624.288 2.795.865 3.511.589.717 1.43 1.075 2.524 1.075s1.911-.382 2.452-1.146c.553-.765.829-1.875.829-3.332V1.272l-1.514-.233V.143h4.2v.896l-1.316.215v6.79c0 1.862-.444 3.253-1.334 4.173-.889.92-2.073 1.38-3.551 1.38ZM167.968 1.254l-1.478-.215V.143h9.176l.252 2.777h-1.027l-.523-1.738-4.471-.107v5.051l3.011-.053.252-1.487h.992v4.12h-.992l-.252-1.54-3.011-.054v5.338l5.084-.18.955-2.256 1.064.322-.523 3.117h-10.005v-.878l1.496-.179V1.254Z" fill="#59313B"></path></svg><svg fill="none" aria-label="Pinterest logo." id="pinterest" viewBox="0 0 20 20"><path d="M10 0C4.477 0 0 4.477 0 10c0 4.238 2.637 7.855 6.355 9.313-.085-.793-.168-2.004.036-2.868l1.171-4.968s-.3-.598-.3-1.485c0-1.39.804-2.43 1.808-2.43.852 0 1.266.641 1.266 1.41 0 .86-.547 2.141-.828 3.329-.235.996.5 1.808 1.48 1.808 1.778 0 3.145-1.875 3.145-4.578 0-2.394-1.719-4.07-4.176-4.07-2.844 0-4.516 2.133-4.516 4.34 0 .86.332 1.781.747 2.281a.299.299 0 0 1 .07.285c-.074.317-.246.996-.278 1.133-.043.184-.144.223-.335.133-1.25-.582-2.032-2.406-2.032-3.875 0-3.156 2.293-6.051 6.606-6.051 3.469 0 6.164 2.473 6.164 5.777 0 3.446-2.172 6.22-5.188 6.22-1.011 0-1.965-.528-2.293-1.15 0 0-.5 1.91-.62 2.38-.227.867-.837 1.957-1.243 2.62.938.29 1.93.446 2.961.446 5.523 0 10-4.477 10-10S15.523 0 10 0Z" fill="currentColor"></path></svg></svg>